<svg xmlns="http://www.w3.org/2000/svg" xmlns:xlink="http://www.w3.org/1999/xlink" viewBox="0 0 959.976 959.976"><defs><style>.cls-1{isolation:isolate;}.cls-2{fill:url(#radial-gradient);}.cls-3{fill:url(#radial-gradient-2);}.cls-4{fill:#fff;}.cls-5{fill:url(#radial-gradient-3);}.cls-12,.cls-6{mix-blend-mode:overlay;}.cls-6{fill:url(#radial-gradient-4);}.cls-7{fill:url(#linear-gradient);}.cls-8{fill:#292929;}.cls-9{fill:url(#linear-gradient-2);}.cls-10{fill:url(#linear-gradient-3);}.cls-11{fill:url(#linear-gradient-4);}.cls-12{fill:#eaeaea;opacity:0.6;}</style><radialGradient id="radial-gradient" cx="479.988" cy="479.988" r="458.81924" gradientUnits="userSpaceOnUse"><stop offset="0"/><stop offset="1" stop-color="#292929"/></radialGradient><radialGradient id="radial-gradient-2" cx="479.98184" cy="479.98178" r="296.61088" gradientUnits="userSpaceOnUse"><stop offset="0"/><stop offset="0.99441" stop-color="#1c1c1c"/></radialGradient><radialGradient id="radial-gradient-3" cx="479.98291" cy="479.82621" r="296.52967" gradientUnits="userSpaceOnUse"><stop offset="0.21229"/><stop offset="0.35102" stop-color="#030203"/><stop offset="0.4719" stop-color="#0b070e"/><stop offset="0.58615" stop-color="#180f20"/><stop offset="0.6963" stop-color="#2b1b39"/><stop offset="0.80356" stop-color="#442b5a"/><stop offset="0.90714" stop-color="#613d81"/><stop offset="1" stop-color="#8151ab"/></radialGradient><radialGradient id="radial-gradient-4" cx="450.44125" cy="427.86134" r="284.44493" xlink:href="#radial-gradient-3"/><linearGradient id="linear-gradient" x1="288.11297" y1="359.78235" x2="620.92597" y2="285.19255" gradientUnits="userSpaceOnUse"><stop offset="0.01117" stop-color="#e0e0e0"/><stop offset="0.17919"/><stop offset="0.3074" stop-color="#030303"/><stop offset="0.41914" stop-color="#0e0e0e"/><stop offset="0.52474" stop-color="#202020"/><stop offset="0.62659" stop-color="#393939"/><stop offset="0.72581" stop-color="#5a5a5a"/><stop offset="0.82294" stop-color="#828282"/><stop offset="0.91663" stop-color="#b0b0b0"/><stop offset="1" stop-color="#e0e0e0"/></linearGradient><linearGradient id="linear-gradient-2" x1="500.13237" y1="672.14716" x2="500.13237" y2="484.1157" gradientUnits="userSpaceOnUse"><stop offset="0" stop-color="#585858"/><stop offset="0.39665" stop-color="#292929"/><stop offset="0.73464"/></linearGradient><linearGradient id="linear-gradient-3" x1="466.84519" y1="699.04738" x2="518.50422" y2="699.04738" gradientUnits="userSpaceOnUse"><stop offset="0" stop-color="#585858"/><stop offset="0.39665" stop-color="#292929"/><stop offset="0.91899"/></linearGradient><linearGradient id="linear-gradient-4" x1="450.44002" y1="688.55511" x2="450.44002" y2="91.4894" gradientUnits="userSpaceOnUse"><stop offset="0"/><stop offset="0.2905" stop-color="#292929"/><stop offset="1" stop-color="#585858"/></linearGradient></defs><g class="cls-1"><g id="DESIGN"><circle class="cls-2" cx="479.988" cy="479.988" r="458.81924"/><path class="cls-3" d="M776.59269,479.99211c0,146.47367-106.14546,268.1189-245.70517,292.225-4.10723.7431-8.235,1.36224-12.3833,1.89887a300.28489,300.28489,0,0,1-38.51211,2.47668c-4.39608,0-8.79216-.10329-13.14692-.30963q-6.22265-.27871-12.3833-.80495C302.62205,762.57885,183.371,635.21675,183.371,479.99211a296.85479,296.85479,0,0,1,99.85064-221.94987h.02053a293.46,293.46,0,0,1,27.53225-21.67076q9.659-6.74907,19.85454-12.67227,3.46731-2.04336,6.99659-3.96262,10.18519-5.60362,20.86582-10.40205c1.98137-.90811,3.98328-1.77491,6.006-2.62117.02053-.02053.02053-.02053.04119-.02053a297.97406,297.97406,0,0,1,177.37006-16.84135,290.66317,290.66317,0,0,1,30.81375,8.3175h.02066q5.3867,1.76464,10.69089,3.75628,6.56313,2.44564,12.9819,5.2009C702.35478,252.36656,776.59269,357.52127,776.59269,479.99211Z"/><path class="cls-4" d="M442.31633,89.82122a12.368,12.368,0,0,1,4.71938,8.61687,12.58643,12.58643,0,1,1-24.99645,2.955,12.371,12.371,0,0,1,2.58015-9.47947,12.63936,12.63936,0,0,1,17.69692-2.09239Z"/><path class="cls-4" d="M376.9693,101.708a12.36748,12.36748,0,0,1,6.11277,7.69127,12.58629,12.58629,0,1,1-24.1323,7.15359,12.37326,12.37326,0,0,1,.934-9.77982,12.63939,12.63939,0,0,1,17.08549-5.065Z"/><path class="cls-4" d="M314.63257,124.51376a12.36788,12.36788,0,0,1,7.331,6.54062,12.58642,12.58642,0,1,1-22.56609,11.15016,12.37285,12.37285,0,0,1-.74124-9.79672,12.63842,12.63842,0,0,1,15.97631-7.89406Z"/><path class="cls-4" d="M257.08052,157.54638a12.37093,12.37093,0,0,1,8.32959,5.21022,12.58639,12.58639,0,1,1-20.36156,14.79723,12.3733,12.3733,0,0,1-2.38351-9.53094,12.64032,12.64032,0,0,1,14.41548-10.47651Z"/><path class="cls-4" d="M205.93235,199.77426a12.36942,12.36942,0,0,1,9.08466,3.74,12.586,12.586,0,1,1-17.59092,18.00187,12.372,12.372,0,0,1-3.94895-8.99633,12.64045,12.64045,0,0,1,12.45521-12.74556Z"/><path class="cls-4" d="M162.59222,249.96688a12.36973,12.36973,0,0,1,9.58394,2.163,12.586,12.586,0,1,1-14.32253,20.69723,12.37525,12.37525,0,0,1-5.40148-8.20592,12.63826,12.63826,0,0,1,10.14007-14.65436Z"/><path class="cls-4" d="M128.26915,306.8038a12.366,12.366,0,0,1,9.81131.51234,12.58612,12.58612,0,1,1-10.61862,22.82035,12.37389,12.37389,0,0,1-6.71037-7.17586,12.63956,12.63956,0,0,1,7.51768-16.15683Z"/><path class="cls-4" d="M104.07769,368.6159a12.37181,12.37181,0,0,1,9.756-1.163,12.58622,12.58622,0,1,1-6.5844,24.29362,12.37823,12.37823,0,0,1-7.83338-5.93073,12.63993,12.63993,0,0,1,4.66177-17.19994Z"/><path class="cls-4" d="M90.74835,433.618a12.368,12.368,0,0,1,9.418-2.79753,12.586,12.586,0,1,1-2.37812,25.05714,12.3728,12.3728,0,0,1-8.72364-4.51891,12.639,12.639,0,0,1,1.68373-17.7407Z"/><path class="cls-4" d="M88.5323,499.86762a12.3673,12.3673,0,0,1,8.822-4.323,12.58611,12.58611,0,1,1,1.82047,25.104,12.37786,12.37786,0,0,1-9.35351-3.00646,12.6397,12.6397,0,0,1-1.28892-17.7745Z"/><path class="cls-4" d="M122.74937,622.83737l-4.82078,1.45023a1.03933,1.03933,0,0,0-.32261.15055,1.14847,1.14847,0,0,1-.32338.149l-.67442.20278a4.24177,4.24177,0,0,0-.646.29957l-1.1568.34873a2.17735,2.17735,0,0,0-.4194.17821,2.41111,2.41111,0,0,1-.41939.17974,17.20628,17.20628,0,0,1-13.68038-1.08767q-6.16077-3.35058-9.862-12.8554-1.03351-2.73991-2.02555-5.85776-.99088-3.11782-1.83276-5.91459l-3.14241-10.09321q-4.26081-17.64238,4.87762-23.96869a63.44284,63.44284,0,0,1,8.05306-4.684,68.9706,68.9706,0,0,1,9.10463-3.63325l12.62958-3.80071a32.19733,32.19733,0,0,1,8.96252-1.48863,19.90933,19.90933,0,0,1,7.60448,1.33808l-.096.02919a15.565,15.565,0,0,1,7.23731,5.1818,39.12887,39.12887,0,0,1,5.73639,9.62926q.68556,1.58081,1.411,3.4658.72474,1.88268,1.31427,3.49345.64638,1.802,1.18446,3.58716.53691,1.7813,1.08843,3.61482,4.58458,15.232,2.24678,22.139-1.22247,3.62711-5.9868,7.00687a54.692,54.692,0,0,1-13.32626,6.377l-4.55578-15.13674q8.86959-2.66848,10.65165-4.78237l.02919.09524q1.08767-1.272-1.0293-8.31115-1.16141-3.85755-2.35969-7.49079-1.20059-3.63633-2.55249-7.43242a28.21682,28.21682,0,0,0-2.11082-4.56883,4.01057,4.01057,0,0,0-2.18609-2.02325q-2.97267-.79041-8.1775.77735l-.964.29035-9.322,2.91121-2.98879.90024q-1.25473.37561-2.5402.81729-1.28815.43783-2.70458.97092l-.3856.11522q-2.45072.9471-4.51583,1.93875a7.04437,7.04437,0,0,0-2.935,2.30132,4.66894,4.66894,0,0,0-.65291,3.24611,35.82614,35.82614,0,0,0,.7374,4.71938l.116.38561q.22237,1.09.46472,2.06933.23965.97707.50312,1.84505,1.01508,3.37362,2.03554,6.59055,1.0197,3.21462,2.22911,6.53063a14.49969,14.49969,0,0,0,2.5694,4.6948,3.57267,3.57267,0,0,0,3.59791,1.12454l2.69921-.81268q1.03005-.41478,3.20079-1.0677,2.16843-.65443,3.9044-1.17523Z"/><path class="cls-4" d="M185.26738,691.1824l-30.67753-4.65025q-1.13145,3.38745-2.55249,7.65671-1.423,4.26772-2.87818,8.67525-1.45638,4.40829-2.84361,8.537-1.3884,4.12946-2.36354,7.18969l-10.041-16.63614,6.49684-17.68079q-2.695-.37331-5.337-.65905-2.64314-.288-5.42376-.60682l.086-.05224q-1.78014-.22122-4.01578-.51618-2.23755-.29727-3.929-.56842l-9.98951-16.54856,33.39133,5.83317q1.14757-3.16163,2.27059-6.66275,1.11993-3.49806,2.33818-6.93774.54614-1.62459,1.31888-3.85447.772-2.22834,1.51628-4.50124.74432-2.27442,1.43948-4.33839c.46164-1.378.85262-2.51332,1.1737-3.41357l9.72912,16.11842-6.07129,15.66061q4.19743.52309,8.38566.93558,4.18707.41019,8.14293.72973Z"/><path class="cls-4" d="M192.77277,722.86465a85.0111,85.0111,0,0,1,8.9341-7.944,42.32386,42.32386,0,0,1,8.52009-5.0927q5.042-2.37351,11.32068.232,6.276,2.60627,13.64274,9.90579l2.6462,2.62085a115.17728,115.17728,0,0,1,9.481,10.45885,41.17911,41.17911,0,0,1,5.55818,8.97942l-.07144-.07066a13.37312,13.37312,0,0,1,.40327,10.39278q-1.89882,5.41992-7.77961,11.35448l-3.04717,3.07559q-2.97611,3.00261-6.059,6.1143-3.08211,3.11092-6.20187,5.973a34.3757,34.3757,0,0,1-8.94179,6.30634,16.435,16.435,0,0,1-8.825,1.61l.07528-.07528q-8.26123-.53231-19.27389-11.44512l-2.57477-2.55172q-.64407-.78119-1.10918-1.2413-.46548-.46087-1.037-1.02622a66.39079,66.39079,0,0,1-7.80112-9.07774,41.46765,41.46765,0,0,1-4.522-8.09455q-2.96229-9.17145,5.89154-19.39218,1.98292-2.14538,4.14483-4.3261,2.16151-2.17995,4.217-4.25543Zm8.961,13.55593-6.66045,6.86554q-5.03163,5.36231-4.73474,7.78115.22583,2.91735,7.37864,10.00411,8.5101,8.434,12.933,10.26373,3.066,1.33885,9.23444-4.45514l3.47271-3.50421q.92061-.7881,1.80741-1.6822.8849-.8918,1.80741-1.82354l6.94465-7.0084q5.88079-5.9361,4.94522-8.42331a28.238,28.238,0,0,0-3.47656-5.21713,86.22121,86.22121,0,0,0-6.54676-7.12362l-1.93107-1.91418q-6.15156-6.0951-9.143-6.65046l.07143.07067q-2.49335-.20279-8.093,5.02049Z"/><path class="cls-4" d="M314.60185,817.93288a84.89453,84.89453,0,0,1,4.98976-10.86441,42.38176,42.38176,0,0,1,5.75482-8.08686q3.664-4.19859,10.46038-4.33532,6.79334-.136,16.47329,3.5887l3.47656,1.33654a115.44217,115.44217,0,0,1,12.883,5.76711,41.22573,41.22573,0,0,1,8.69906,5.98987l-.09448-.03533a13.36668,13.36668,0,0,1,4.545,9.35427q.439,5.7264-2.56094,13.52368l-1.55469,4.04036q-1.5186,3.94741-3.09172,8.03462-1.57275,4.08569-3.27914,7.96089a34.31958,34.31958,0,0,1-5.6542,9.36657,16.442,16.442,0,0,1-7.43395,5.022l.0384-.09985q-7.7796,2.83209-22.24885-2.73608l-3.38284-1.30275q-.90332-.45627-1.514-.68978-.61182-.235-1.36266-.52386a66.43537,66.43537,0,0,1-10.79067-5.17719,41.50887,41.50887,0,0,1-7.394-5.59659q-6.397-7.20811-2.39657-20.125.954-2.76066,2.05782-5.62578,1.10265-2.86665,2.15153-5.592Zm13.65272,8.81351-3.34059,8.96253q-2.453,6.9316-1.209,9.02859,1.37917,2.58091,10.77685,6.19573,11.18088,4.30229,15.96633,4.2032,3.346-.00691,6.66659-7.7919l1.7713-4.60417c.351-.72818.67826-1.481.98014-2.266q.45165-1.17292.92175-2.395l3.54338-9.20833q3.00145-7.80035,1.14374-9.70147a28.17486,28.17486,0,0,0-5.27935-3.37977,86.79849,86.79849,0,0,0-8.85806-3.89441l-2.53713-.97552q-8.08149-3.11092-11.04416-2.41654l.09372.03687q-2.3643.81576-5.39381,7.84875Z"/><path class="cls-4" d="M406.28648,885.4468l7.10365-67.18208,38.44716,4.06647q1.10034.11522,2.30285.24273,1.20174.12673,2.49258.36563a33.91672,33.91672,0,0,1,6.20187,1.66684,17.87284,17.87284,0,0,1,5.43144,3.2077,17.39536,17.39536,0,0,1,4.83153,7.44625,29.18266,29.18266,0,0,1,1.33193,7.987l-.24349,2.30285a2.25421,2.25421,0,0,0,.0023.45473,2.39453,2.39453,0,0,1,.00307.45627l-.09524.90178q-.11753,1.10149-.30418,2.39657-.19011,1.29737-.40481,2.38734a27.47394,27.47394,0,0,1-2.458,6.01752,14.02185,14.02185,0,0,1-4.67714,4.97287,16.4738,16.4738,0,0,1-4.7309,2.13079,29.8,29.8,0,0,1-5.05352.88335,38.26616,38.26616,0,0,1-5.22558.106q-2.62009-.12675-5.12189-.39021l-.401-.04148a2.83046,2.83046,0,0,0-.55536-.00922,2.274,2.274,0,0,1-.45626.00307l-20.42455-2.16-2.47722,23.42793Zm19.383-34.90377,16.21981,1.716a59.98085,59.98085,0,0,0,7.95782.3856,28.22767,28.22767,0,0,0,5.42759-.58993l-.11061.08911q2.29632-.66828,2.93349-6.675a22.37145,22.37145,0,0,0,.076-4.54886,9.25949,9.25949,0,0,0-.78426-3.12014l.10063.01075a3.20656,3.20656,0,0,0-2.13617-1.33961,33.06065,33.06065,0,0,0-5.12495-.845l-22.7274-2.40424Z"/><path class="cls-4" d="M517.32411,835.08827l1.71754,12.77245,37.91791-5.0973,1.75595,13.072-37.91638,5.09576,1.971,14.66819,39.51408-5.31084,1.75748,13.072L509.06212,890.75l-9.00093-66.95318,54.97959-7.39094,1.79742,13.37006Z"/><path class="cls-4" d="M644.73365,783.4823l25.92281,62.38436-17.7576,7.37864-52.10833-29.37171L618.87075,867.385l-14.41163,5.98833L578.5363,810.989l17.75914-7.37865L648.5958,833.446l-18.27225-43.97537Z"/><path class="cls-4" d="M768.14892,672.076l50.864,44.45929-10.46959,11.97821-32.74687-28.62509q1.03467,2.64312,1.94951,5.1142.91484,2.4726,1.94951,5.11266,3.50958,8.68524,7.11594,17.78833,3.60867,9.10694,6.89012,17.58862l-8.54774,9.77981-47.286-11.38059L770.312,772.25072l-10.336,11.82612L709.11207,739.616,722.562,724.22884,774.00667,736.969q-2.23987-5.69876-4.472-11.3299-2.23065-5.62731-4.47051-11.3299-2.50257-6.46611-5.22174-13.45608-2.71687-6.98921-5.277-13.23794Z"/><path class="cls-4" d="M786.96654,634.22718l59.63138,31.74677-7.4739,14.0414-59.63291-31.74523Z"/><path class="cls-4" d="M856.54058,558.80768l4.8177,1.45791a1.128,1.128,0,0,0,.3518.05377,1.12162,1.12162,0,0,1,.35181.05377l.67442.20432a4.283,4.283,0,0,0,.7036.10754l1.1568.34873a2.2267,2.2267,0,0,0,.44859.083,2.41413,2.41413,0,0,1,.44859.083,17.20651,17.20651,0,0,1,10.79682,8.47092q3.28145,6.1988,1.10764,16.1645-.65214,2.85514-1.55162,6.00063-.89871,3.14549-1.74365,5.94071l-2.96191,10.14851q-6.208,17.05707-17.31823,17.27215a63.42175,63.42175,0,0,1-9.30051-.55,69.11549,69.11549,0,0,1-9.59546-2.00635l-12.625-3.8176a32.21078,32.21078,0,0,1-8.28965-3.71621,19.89575,19.89575,0,0,1-5.59658-5.32006l.09678.02919a15.55254,15.55254,0,0,1-3.16469-8.32037,39.07608,39.07608,0,0,1,.54537-11.19471q.30187-1.696.74048-3.66705.43784-1.97025.83726-3.6394.45857-1.85733.99549-3.64246.53924-1.7836,1.09228-3.61482,4.60418-15.22508,10.37128-19.68868,3.02336-2.34355,8.86267-2.52714a54.74974,54.74974,0,0,1,14.62978,2.05705l-4.575,15.1306q-8.865-2.68-11.5204-1.905l.02919-.09678q-1.61076.46088-3.73772,7.49386-1.166,3.85755-2.17687,7.54764-1.00932,3.69162-1.98331,7.60294a28.32761,28.32761,0,0,0-.76813,4.9744,4.02082,4.02082,0,0,0,.70361,2.89584q2.03937,2.29978,7.24345,3.87291l.96323.29035,9.37732,2.72993,2.988.90332c.83573.25349,1.68989.49468,2.56863.72512q1.31349.34564,2.78984.68517l.3856.11675q2.56479.56459,4.8346.88335a7.04345,7.04345,0,0,0,3.71775-.2965,4.66278,4.66278,0,0,0,2.33818-2.34279,35.50754,35.50754,0,0,0,1.9956-4.33993l.11676-.3856q.41709-1.03006.75737-1.98023c.22583-.63141.42708-1.23823.60068-1.81586q1.02084-3.37362,1.948-6.61666.92867-3.24228,1.75595-6.675a14.50992,14.50992,0,0,0,.45473-5.33082,3.57872,3.57872,0,0,0-2.37659-2.92811l-2.69767-.81575q-1.09-.22122-3.2584-.87874-2.16843-.65675-3.9021-1.17984Z"/><path class="cls-4" d="M870.1042,518.14755a12.36314,12.36314,0,0,1-9.35735,2.99416,12.58652,12.58652,0,1,1,1.85273-25.10245,12.37518,12.37518,0,0,1,8.81658,4.33686,12.63721,12.63721,0,0,1-1.312,17.77143Z"/><path class="cls-4" d="M870.9645,452.133a12.37288,12.37288,0,0,1-8.73362,4.502,12.58635,12.58635,0,1,1-2.32743-25.06251,12.37719,12.37719,0,0,1,9.41265,2.81673,12.64031,12.64031,0,0,1,1.6484,17.74378Z"/><path class="cls-4" d="M860.73763,386.54941a12.37335,12.37335,0,0,1-7.84566,5.91536,12.5863,12.5863,0,1,1-6.53678-24.30667,12.37685,12.37685,0,0,1,9.7537,1.18215,12.642,12.642,0,0,1,4.62874,17.20916Z"/><path class="cls-4" d="M839.51884,323.64119a12.36655,12.36655,0,0,1-6.7242,7.1628,12.58615,12.58615,0,1,1-10.57406-22.84108,12.37163,12.37163,0,0,1,9.81208-.49314,12.63949,12.63949,0,0,1,7.48618,16.17142Z"/><path class="cls-4" d="M807.94567,265.26647a12.361,12.361,0,0,1-5.41684,8.19593,12.58632,12.58632,0,1,1-14.28259-20.72565,12.37644,12.37644,0,0,1,9.58932-2.14385,12.6389,12.6389,0,0,1,10.11011,14.67357Z"/><path class="cls-4" d="M766.99672,213.05675a12.36132,12.36132,0,0,1-3.96508,8.98864,12.58624,12.58624,0,1,1-17.55789-18.0349,12.38,12.38,0,0,1,9.09311-3.72312,12.64078,12.64078,0,0,1,12.42986,12.76938Z"/><path class="cls-4" d="M717.89332,168.46917a12.36769,12.36769,0,0,1-2.40271,9.5271,12.58589,12.58589,0,1,1-20.33237-14.83564,12.36913,12.36913,0,0,1,8.33881-5.19485,12.64031,12.64031,0,0,1,14.39627,10.50339Z"/><path class="cls-4" d="M661.97353,132.752a12.37078,12.37078,0,0,1-.76044,9.79594,12.58633,12.58633,0,1,1-22.54459-11.19317,12.37424,12.37424,0,0,1,7.34332-6.52679,12.63914,12.63914,0,0,1,15.96171,7.924Z"/><path class="cls-4" d="M600.769,106.99274a12.3638,12.3638,0,0,1,.91561,9.78136,12.58557,12.58557,0,1,1-24.11771-7.19737,12.36922,12.36922,0,0,1,6.12659-7.68052,12.6381,12.6381,0,0,1,17.07551,5.09653Z"/><path class="cls-4" d="M536.11869,92.02191a12.3633,12.3633,0,0,1,2.56094,9.48486,12.58628,12.58628,0,1,1-24.9903-3.00415,12.37713,12.37713,0,0,1,4.73628-8.60766,12.63853,12.63853,0,0,1,17.69308,2.127Z"/><path class="cls-5" d="M220.71033,624.1623q-5.83263-10.46559-10.81334-21.446L476.00593,481.996ZM475.62966,479.04885,192.74853,405.79866q-2.97924,11.56644-5.03815,23.48246Zm-.06412,1.50647-291.07115,25.1683q1.03641,12.05565,3.01394,23.8251Zm-.03376-.75607L184.375,455.41271q-.97368,11.86991-.996,23.99326Zm.193,1.49538L193.04028,555.30618q3.05727,11.67811,7.017,22.97089Zm2.42617,2.75722L346.959,745.12894q10.70142,5.37821,21.87232,9.92034Zm-.65995-.36884L304.08594,718.80335q9.65216,7.12,19.8825,13.46613Zm-1.08863-1.04252L234.55588,646.57478q6.76342,9.94352,14.29752,19.29334ZM283.60206,702.24405,476.90183,483.2076l-210.6455,202.432Q274.58466,694.29147,283.60206,702.24405ZM480.36649,484.432,493.15692,776.2692q12.09135-.52963,23.92914-1.99283Zm-1.50206-.1276-85.18554,279.503q11.43607,3.47164,23.2435,6.04351ZM441.73054,185.82034q-11.99631,1.5447-23.67355,4.04525l61.17678,285.72729Zm34.11982,292.50645L209.41781,358.32319q-4.9164,10.91512-8.96033,22.28411Zm1.9621-2.23041-131.887-260.70926c-2.78682,1.41678-5.56646,2.84565-8.29987,4.34947q-3.52929,1.9194-6.99659,3.96262c-1.90516,1.106-3.76586,2.28722-5.64469,3.43833Zm.68981-.31241L392.55512,196.4805q-11.53,3.55479-22.64237,8.01392Zm-2.3123,1.86611L233.90688,314.3697q-6.70484,9.94107-12.61822,20.4335ZM249.59221,293.20773l227.0481,183.8338L265.46,275.18617Q257.16827,283.86823,249.59221,293.20773ZM303.146,241.8645q-9.64064,7.16457-18.66312,15.10788L477.18475,476.51926ZM484.252,481.29476l275.652,96.97715q3.9616-11.284,7.03866-22.96384Zm-1.76709,2.3885L636.01,732.27376q10.22562-6.33714,19.88137-13.46826ZM693.71643,685.637,483.07319,483.20735,676.375,702.24606Q685.37429,694.28846,693.71643,685.637ZM481.82458,484.05172l109.32014,270.9992q11.17286-4.51959,21.87836-9.909Zm84.47847,279.77322L481.1121,484.30417,543.0554,769.8561Q554.85993,767.29937,566.30305,763.82494ZM484.41149,480.55569l288.04878,48.99189q1.97834-11.76107,3.01419-23.82421Zm.03149-.75732,292.14392-.39315q-.02343-12.11611-1.00562-23.99188Zm33.80049-293.972-37.5026,289.76649L541.92,189.85413l-.01146-.00264Q530.23651,187.36749,518.24347,185.82639ZM479.61,484.432,442.89261,774.25734c7.88531.98282,15.86131,1.673,23.92625,2.02421Zm3.9635-1.79229L711.12565,665.87q7.5249-9.34491,14.291-19.29826Zm.39605-.64383L739.24932,624.15323q5.83206-10.466,10.82392-21.43935Zm283.26206-76.197-282.88491,73.2512,287.91613-49.76723Q770.211,417.37311,767.23165,405.79891Zm-283.10523,72.527L759.5188,380.60655q-4.03965-11.36144-8.95806-22.28487Zm-2.65316-2.54206,108.58938-271.2893c-2.19829-.879-4.40489-1.74178-6.62876-2.56928q-5.29374-1.98136-10.69089-3.75628h-.02066c-1.75916-.5816-3.53407-1.12427-5.30709-1.67186ZM656.83675,241.851,482.78951,476.51737,675.504,256.956Q666.48223,249.04092,656.83675,241.851ZM479.99211,183.37087c-4.0251,0-8.02526.10342-12.01106.26214l12.00614,291.89562,12.006-291.89373C488.01069,183.47643,484.01444,183.37087,479.99211,183.37087Zm2.17133,292.724L635.02024,227.0898q-10.21317-6.27384-20.95249-11.73795Zm1.171.94741,227.054-183.83871q-7.57308-9.32979-15.86546-18.02458Zm.45009.60743L738.67805,334.80723q-5.89953-10.49-12.60626-20.44068Z"/><path class="cls-6" d="M649.2098,444.86479l-4.64373-21.40245a20.07968,20.07968,0,0,0-11.43386-13.93121,19.90514,19.90514,0,0,0-3.83879-29.80246,20.12174,20.12174,0,0,0-3.05464-1.6924c.45412-.516.88758-1.07314,1.30026-1.63042a19.85523,19.85523,0,0,0,3.5706-14.15821c-.062-.55729-.16514-1.11457-.26831-1.67174l-.08264-.30963a18.48143,18.48143,0,0,0-1.15577-3.46731,19.77955,19.77955,0,0,0-10.31941-10.36073,19.89437,19.89437,0,0,0,4.66439-17.50168l-.26831-1.03194a19.302,19.302,0,0,0-1.56857-4.06591,19.67836,19.67836,0,0,0-8.00788-8.25553c-.59848-.33017-1.1763-.61914-1.7749-.88746l.26831-.30951c.12383-.14448.26832-.30963.39214-.47477A19.78575,19.78575,0,0,0,617.034,297.256l-.08264-.37161a19.82726,19.82726,0,0,0-4.78809-9.24616q-.37168-.37148-.7431-.743a20.27394,20.27394,0,0,0-6.06782-4.08645,19.96289,19.96289,0,0,0,4.68506-17.62564l-.14449-.6398a19.9399,19.9399,0,0,0-11.57835-13.72474c.35082-.39214.68112-.78428,1.01128-1.19708a19.81714,19.81714,0,0,0,3.75628-16.26341l-.12382-.6398a19.974,19.974,0,0,0-11.68165-14.055,19.72891,19.72891,0,0,0,4.78822-17.50168l-.14448-.68112a19.8997,19.8997,0,0,0-5.655-10.09241l-.516-.49532a20.10613,20.10613,0,0,0-3.137-2.29088c-.22712-.14448-.47478-.26831-.66046-.37148a18.82026,18.82026,0,0,0-2.291-1.0526l-.49531-.22712a20.12813,20.12813,0,0,0,1.81622-2.33207,19.65357,19.65357,0,0,0,2.10521-17.79079,131.8207,131.8207,0,0,0-21.58826-38.223c-1.89874-2.3322-3.75628-4.45806-5.69634-6.50128C512.08545,70.29079,439.47809,78.23669,418.36461,81.8898l-.227.04132a310.67684,310.67684,0,0,0-130.62319,58.77933A99.41112,99.41112,0,0,0,275.72973,151.484a100.86752,100.86752,0,0,0-8.83348,10.97987c-1.07326,1.58911-2.14639,3.26085-3.261,5.139a96.39359,96.39359,0,0,0-13.70408,49.53318,95.15832,95.15832,0,0,0,2.29088,20.84516c.04132.20634.08251.4128.12383.59848l2.02256,8.99862a21.93886,21.93886,0,0,0,.74309,2.41471,18.85255,18.85255,0,0,0,9.92727,10.629,18.94469,18.94469,0,0,0-3.96274,16.34592l.47478,2.08454c.02053.08251.04119.14449.06185.227a18.399,18.399,0,0,0,1.6924,4.49924,18.84217,18.84217,0,0,0,8.75084,8.25553.28479.28479,0,0,1-.06185.08251l-.55729.70178a19.02893,19.02893,0,0,0-3.21965,15.4378l.47465,2.12586a18.95085,18.95085,0,0,0,10.36073,12.96111,19.15507,19.15507,0,0,0-3.715,16.26341l.47465,1.98137a18.80461,18.80461,0,0,0,10.2369,12.91992,19.04557,19.04557,0,0,0-3.63245,16.11892l.47465,2.08454a18.90845,18.90845,0,0,0,10.11307,12.81663,18.82482,18.82482,0,0,0-3.5706,15.80941l.49544,2.3322a18.90836,18.90836,0,0,0,9.96846,12.75478,18.768,18.768,0,0,0-3.44665,15.80928l.516,2.24969a18.778,18.778,0,0,0,9.84476,12.6928,19.09833,19.09833,0,0,0-3.36414,15.80941l.49532,2.167a18.87243,18.87243,0,0,0,9.74146,12.67227,19.01778,19.01778,0,0,0-3.30216,15.6236A120.17394,120.17394,0,0,0,314.056,505.997a110.88629,110.88629,0,0,0,21.44364,36.5514c.22712.24765.47478.516.70178.76362l.289.30964c.43334.49531.8668.97,1.32079,1.46527a112.77675,112.77675,0,0,0,41.64926,27.96558,24.17047,24.17047,0,0,1,13.35326,13.10573L430.17,673.93508a44.51187,44.51187,0,0,0,24.29193,23.776v77.76707q6.16067.52625,12.3833.80495c4.35476.20634,8.75084.30963,13.14692.30963a300.28489,300.28489,0,0,0,38.51211-2.47668c4.1483-.53663,8.27607-1.15577,12.3833-1.89887V684.72927l2.95133-1.42409a44.53016,44.53016,0,0,0,24.47762-47.44863l-10.71156-88.37546,49.45067-14.571a74.23889,74.23889,0,0,0,14.65352-6.04716,75.35195,75.35195,0,0,0,37.5007-81.99813Z"/><path d="M621.19831,418.84278l-16.52109,3.40085L446.07456,454.82207l-93.60029,19.22634c-.01922-.01934-.01922-.01934-.01922,0l-18.87855,3.88393-1.971-8.57939-1.3912-6.12533-.7923-3.45888-1.41054-6.106-1.42988-6.26061-1.99032-8.75334-1.41053-6.106-2.18351-9.54553-1.42987-6.222-2.04823-8.92718v-.01935l-1.39131-6.08665-2.16416-9.507-1.42988-6.24127-2.08691-9.0818-1.39119-6.106-2.16416-9.46829v-.01934l-1.42988-6.22193-2.12559-9.25564-1.3912-6.10611-2.16416-9.4296-.11593-.50242-1.314-5.75819-2.16427-9.41026-1.3912-6.12534-2.14481-9.37169-1.42988-6.24127-2.20285-9.62278-1.39131-6.08677-2.14481-9.333-1.42988-6.24127-1.42988-6.26062-.81165-3.55547-1.39119-6.06731-3.80657-16.61779,16.96548-6.5505,206.5622-79.88094,62.60623,14.68538,2.24152,5.58436,3.78722,17.19745,1.50725,6.91753.61835,2.76316,1.27526,5.87425,1.68108,7.65181,2.06757,9.391,1.56515,7.13017,1.77768,8.11554,1.6812,7.63258,2.04823,9.275,1.56515,7.13017,1.77768,8.09631,1.68109,7.65193,2.00954,9.159,1.56515,7.13016,1.7778,8.077,1.66174,7.63258h.01934l1.9902,9.0818,1.56516,7.11083,1.75845,8.05762,1.68108,7.63259,1.97086,8.96587,1.56527,7.11082,1.75834,8.03829,1.68108,7.61324,1.95164,8.908,1.56515,7.11083,1.73911,7.961,1.68109,7.67115,1.93229,8.77269,1.56516,7.09148Z"/><path class="cls-7" d="M371.13156,353.97993a10.90465,10.90465,0,0,1-6.85631,14.333,212.68832,212.68832,0,0,0-21.44605,8.187,203.99223,203.99223,0,0,0-29.23644,15.9676l-3.46253-15.32567a218.36723,218.36723,0,0,1,47.31748-28.41075A10.15361,10.15361,0,0,1,371.13156,353.97993Zm-21.581-36.06421a219.18311,219.18311,0,0,0-46.45429,28.0942l3.50346,15.50659a204.67608,204.67608,0,0,1,28.373-15.61721,213.16253,213.16253,0,0,1,21.46846-8.33455,10.99066,10.99066,0,0,0,6.8286-14.43795A10.1392,10.1392,0,0,0,349.55059,317.91572Zm229.71693-89.92558-1.77768-8.11554a7.35654,7.35654,0,0,1-2.87909-.21264C509.37651,202.38725,437.03144,212.242,373.7295,237.555a11.5794,11.5794,0,0,0-6.66632,6.763,10.826,10.826,0,0,0,.28977,7.94169c1.95164,4.56031,6.937,7.67127,13.42946,5.17865.75363-.32857,1.48791-.63769,2.24141-.94692a385.35791,385.35791,0,0,1,55.05114-19.033c44.19153-11.63244,91.14624-14.16374,135.2025-3.768,2.58932.57967,5.13985,1.256,7.67126,1.9323Zm7.07226,32.134-1.77768-8.09631a7.27135,7.27135,0,0,1-2.93712-.19318c-59.36011-15.7289-124.575-9.15905-183.52918,11.03343-5.52645,1.89361-11.01409,3.90316-16.42449,6.02875a11.52662,11.52662,0,0,0-6.66643,6.68566c-2.68592,7.51665,3.69062,16.90756,13.66132,13.13969,10.06718-4.28976,20.21171-8.21225,30.51087-11.67113q13.18786-4.49255,26.78156-7.9417c44.17231-11.36189,91.08833-13.66132,135.08669-3.111,2.338.541,4.65677,1.14,6.97555,1.77768Zm14.02847,63.90095-1.75845-8.05762a7.82837,7.82837,0,0,1-3.05294-.174c-47.01273-12.48254-97.69675-11.20728-146.00408-.30912a387.4592,387.4592,0,0,0-52.07532,15.7289,11.37481,11.37481,0,0,0-6.72447,6.60841c-2.66657,7.42006,3.65207,16.71438,13.56474,13.08166A395.11056,395.11056,0,0,1,457.05,333.14562c1.50725-.38648,3.03372-.773,4.5603-1.1401,44.1722-10.84014,91.011-12.63716,134.85471-1.797,1.87438.44439,3.72931.92746,5.58435,1.44922Zm-6.99489-31.88283-1.7778-8.077a7.557,7.557,0,0,1-2.995-.19318c-51.22511-13.58408-106.79789-10.705-158.93112,3.18822a386.6742,386.6742,0,0,0-40.07574,13.06232,11.46809,11.46809,0,0,0-6.705,6.66643c-2.66657,7.45863,3.69063,16.79164,13.62265,13.08167a402.77354,402.77354,0,0,1,46.08515-16.27c3.71-1.04339,7.4394-2.04823,11.20727-2.97569,44.17232-11.11068,91.04965-13.13957,134.97076-2.454,2.10613.50242,4.1737,1.04352,6.26061,1.60384h.01934ZM372.07813,398.93889a10.82008,10.82008,0,0,0,6.88379-14.22861,10.16806,10.16806,0,0,0-13.64859-5.28633,217.62664,217.62664,0,0,0-48.1796,28.71538l3.42232,15.14746a203.47719,203.47719,0,0,1,30.09856-16.30749A212.19371,212.19371,0,0,1,372.07813,398.93889ZM379.85,429.443a10.73629,10.73629,0,0,0,6.911-14.12459,10.18254,10.18254,0,0,0-13.61321-5.32347,216.71364,216.71364,0,0,0-49.0369,29.02579l3.3814,14.96572A202.76721,202.76721,0,0,1,358.449,437.33826,211.75917,211.75917,0,0,1,379.85,429.443ZM607.3438,355.7727l-1.75834-8.03829a7.35133,7.35133,0,0,1-3.09174-.174c-45.6601-12.13474-94.7983-11.38111-141.83025-1.46856a382.08361,382.08361,0,0,0-55.34091,16.096,11.20736,11.20736,0,0,0-6.70512,6.5505c-2.70514,7.34269,3.57482,16.61767,13.48749,13.06232a393.62593,393.62593,0,0,1,51.20577-17.0235c2.00954-.52176,4.05777-1.02417,6.08665-1.50724,44.153-10.58893,90.95306-12.13474,134.73889-1.15933,1.64241.4057,3.26547.83087,4.88864,1.27526Zm6.937,31.59306-1.73911-7.961a7.35289,7.35289,0,0,1-3.09162-.174c-47.05141-12.54057-97.81279-11.47783-146.15869-.86956A382.61653,382.61653,0,0,0,413.129,393.02737a11.169,11.169,0,0,0-6.72434,6.49248c-2.68592,7.30412,3.55535,16.54042,13.44869,13.06232a411.82438,411.82438,0,0,1,40.15311-13.77726c5.6616-1.60384,11.36189-3.0724,17.13943-4.40569,44.15285-10.31838,90.895-11.63232,134.62284-.50229,1.41065.34779,2.80185.7535,4.19316,1.14Zm6.91753,31.477-1.739-7.9417a7.60872,7.60872,0,0,1-3.14965-.15461c-51.80478-13.83517-108.09249-11.30387-160.68958,2.28009-11.78694,3.03371-23.3807,6.62775-34.70391,10.7242a11.182,11.182,0,0,0-6.7438,6.43457c-2.6858,7.2461,3.51679,16.46318,13.41012,13.043q10.4345-4.08672,20.98479-7.63258A361.84834,361.84834,0,0,1,484.875,425.41262c39.22553-8.94652,80.48006-10.78223,119.80218-3.169,4.92733.92747,9.83543,2.02889,14.68539,3.28493,1.17878.30911,2.33811.65691,3.51678.96614ZM572.19538,195.70159l-1.2946-5.87425-.61835-2.76316a7.11,7.11,0,0,1-3.768.01934c-65.2728-16.96547-137.56-6.68578-200.746,18.99448a11.75475,11.75475,0,0,0-6.68566,6.82093c-2.64723,7.63258,3.80656,17.04284,13.79648,13.13969a389.89207,389.89207,0,0,1,57.29254-20.34711c44.19154-11.90287,91.18493-14.68538,135.31856-4.44425,2.82107.63769,5.58424,1.35263,8.36674,2.10614h.01935ZM394.59836,446.0495v-.01934a1.08869,1.08869,0,0,0-.07737-.23187,10.18569,10.18569,0,0,0-13.56462-5.35249A215.46227,215.46227,0,0,0,331.60553,469.353c-.17384.15462-.36714.28978-.541.425l1.93229,8.54082,1.41053,6.24127a206.31045,206.31045,0,0,1,18.04768-10.51168c0-.01934,0-.01934.01922,0,4.48293-2.33811,9.06246-4.48293,13.73869-6.47313a212.18287,212.18287,0,0,1,21.37116-7.74852A10.63453,10.63453,0,0,0,394.59836,446.0495ZM355.54667,292.62537V292.606q-.087-.23175-.174-.46373a10.114,10.114,0,0,0-13.75792-5.15919,219.07384,219.07384,0,0,0-45.42823,27.65111c-.05791.03868-.09659.07725-.1545.11593l2.12547,9.4296,1.256,5.565.1545.69559c.07737-.03868.13528-.09659.21264-.13527.19318-.11593.36714-.25121.56032-.36714a205.41876,205.41876,0,0,1,26.743-14.76275,212.88533,212.88533,0,0,1,21.48709-8.48268A11.06676,11.06676,0,0,0,355.54667,292.62537Zm-7.92236-31.09053a2.05718,2.05718,0,0,0-.174-.48308,10.12446,10.12446,0,0,0-13.7966-5.14,221.04639,221.04639,0,0,0-44.63593,27.36134c-.01934.01922-.058.03856-.07736.0579l2.16427,9.64213,1.41054,6.24139a.484.484,0,0,1,.13528-.07737,206.47821,206.47821,0,0,1,26.511-14.80132,210.15947,210.15947,0,0,1,21.52578-8.63741A11.1653,11.1653,0,0,0,347.62431,261.53484Zm-7.94181-31.1679a2.5716,2.5716,0,0,0-.19318-.5411,10.09165,10.09165,0,0,0-13.816-5.10128q-9.44894,4.37667-18.33744,9.60355h-.01934a228.77087,228.77087,0,0,0-25.5063,17.46789l.81165,3.55547,1.41054,6.28,1.41053,6.24127c.01934,0,.01934-.01934.03869-.01934a208.46688,208.46688,0,0,1,25.73816-14.4922,214.75252,214.75252,0,0,1,21.13929-8.65664c.13527-.03868.25121-.09659.38648-.13527A11.23851,11.23851,0,0,0,339.6825,230.36694Z"/><path class="cls-8" d="M466.84032,660.02228V638.05054c3.54335,1.26653,6.16178,5.72065,6.16178,10.98583C473.0021,654.31588,470.38367,658.75575,466.84032,660.02228Z"/><path class="cls-8" d="M466.84519,622.87465a11.59853,11.59853,0,0,0-2.06389-.165c-11.1862,0-20.24668,11.80534-20.24668,26.335,0,14.55047,9.06048,26.3145,20.24668,26.3145a13.91249,13.91249,0,0,0,2.06389-.165c10.19558-1.30026,18.1828-12.50712,18.1828-26.14948C485.028,635.40243,477.04077,624.21622,466.84519,622.87465Zm0,40.10121a8.55981,8.55981,0,0,1-2.06389.24766c-6.12967,0-11.10369-6.35667-11.10369-14.17886,0-7.82207,4.974-14.19952,11.10369-14.19952a7.657,7.657,0,0,1,2.06389.26831c5.11838,1.23841,8.99849,7.01725,8.99849,13.93121C475.84368,655.95874,471.96357,661.73759,466.84519,662.97586Z"/><path d="M473.0021,649.03637c0,5.27951-2.61843,9.71938-6.16178,10.98591a6.35359,6.35359,0,0,1-2.06343.35576c-4.5395,0-8.23937-5.08026-8.23937-11.34167,0-6.24708,3.69987-11.34159,8.23937-11.34159a6.35359,6.35359,0,0,1,2.06343.35576C470.38367,639.31707,473.0021,643.77119,473.0021,649.03637Z"/><path class="cls-9" d="M528.44823,672.14716V623.18279a11.90033,11.90033,0,0,0-14.04769-11.43914l-18.27954,3.2269L482.69154,617.328,453.6878,555.84242l30.66549-6.58919-5.60358-31.30317-2.64724-14.84,16.26988-6.02874h.01934l35.03249-12.96562,1.71965,14.241,4.88876,40.211.9468,7.72918,4.7148,38.93563,6.37655,52.44247A32.01628,32.01628,0,0,1,528.44823,672.14716Z"/><path class="cls-10" d="M518.50422,623.30811V774.116a300.28489,300.28489,0,0,1-38.51211,2.47668c-4.39608,0-8.79216-.10329-13.14692-.30963v-88.004a31.67574,31.67574,0,0,0,6.41864.20647l.55729-.062a25.06754,25.06754,0,0,0,3.01331-.39214,31.25608,31.25608,0,0,0,3.81814-.94943,32.05149,32.05149,0,0,0,21.89776-36.1798l-4.6644-26.12869,18.38927-3.24031A1.87888,1.87888,0,0,1,518.50422,623.30811Z"/><path class="cls-11" d="M637.11548,447.50662l-4.64373-21.36126a7.6195,7.6195,0,0,0-5.28354-5.63436c-1.98137-.59848-3.98327-1.15577-5.9853-1.67174-.59849-.16514-1.21762-.33016-1.83676-.47465-43.65117-11.26884-90.35684-10.19558-134.48265-.14449-11.57835,2.60051-22.90905,5.75819-34.09525,9.47315q-11.67132,3.839-23.19815,8.35883c-6.687,2.33207-11.70217-1.13524-13.41523-5.86148-1.73359-4.80889-.06185-10.95921,6.74893-13.62158a385.20751,385.20751,0,0,1,37.27371-11.39267c51.86538-13.00243,107.1774-15.2108,158.176-1.58923a7.79612,7.79612,0,0,0,1.52725.227,7.53684,7.53684,0,0,0,2.53854-14.736c-2.02257-.5986-4.08645-1.17642-6.15033-1.713-.84614-.227-1.6924-.454-2.51788-.66046-43.73367-11.1037-90.48066-9.78278-134.62713.516q-7.77056,1.79564-15.41714,3.92143a413.49073,413.49073,0,0,0-41.87626,14.26137c-6.70761,2.37351-11.72283-1.11445-13.43576-5.882-1.73372-4.82954-.062-10.97987,6.70761-13.68355a382.48817,382.48817,0,0,1,50.37932-14.67417c48.2949-10.60839,98.98384-11.61967,145.97836.90811a7.83659,7.83659,0,0,0,1.50672.227,7.51739,7.51739,0,0,0,7.73956-9.12233l-.02066-.08263a7.51792,7.51792,0,0,0-5.139-5.593c-2.06388-.61927-4.12776-1.19709-6.233-1.73372-1.0526-.289-2.1052-.55729-3.199-.8256-43.775-10.97987-90.58382-9.432-134.7303,1.13523-2.27022.53651-4.49925,1.0938-6.74881,1.67174A394.55723,394.55723,0,0,0,412.111,374.63094c-6.74881,2.4147-11.78469-1.07326-13.49775-5.9028-1.73372-4.82942-.06185-10.97975,6.70762-13.72474a381.91192,381.91192,0,0,1,53.61962-15.72678c47.59312-10.25756,97.41528-11.16567,143.64629,1.13511a5.9271,5.9271,0,0,0,1.42409.20634,7.49846,7.49846,0,0,0,7.82206-9.10167l-.04131-.12382a7.513,7.513,0,0,0-5.139-5.61383c-2.08454-.61914-4.169-1.21762-6.27416-1.75425-1.30025-.35082-2.62117-.70178-3.92142-1.01128-43.83685-10.81473-90.66634-9.01916-134.854,1.81622-2.3322.57783-4.64373,1.15577-6.97593,1.77491a397.94325,397.94325,0,0,0-50.31746,17.10954c-6.74894,2.47669-11.84667-1.05247-13.55973-5.882-1.6924-4.85007-.04131-11.02119,6.72828-13.80738a379.84218,379.84218,0,0,1,48.56309-14.90117c49.38869-11.64033,101.43987-13.29141,149.63147-.47478a8.0747,8.0747,0,0,0,1.36223.20647,7.51711,7.51711,0,0,0,7.86339-9.12246l-.04132-.20633a7.53865,7.53865,0,0,0-5.1597-5.61383c-2.1052-.6398-4.21028-1.21762-6.31548-1.77491-1.52725-.39214-3.0545-.78428-4.60242-1.15577-43.91947-10.69089-90.81082-8.627-134.978,2.456q-7.77056,1.9194-15.37595,4.18974A406.12153,406.12153,0,0,0,396.508,312.69381c-6.76947,2.51787-11.90852-1.01129-13.62157-5.90268-1.6924-4.8502-.04132-11.04184,6.70761-13.84869,11.24819-4.35476,22.76456-8.21421,34.46687-11.5165,53.76411-15.21081,111.55281-18.80194,164.65647-4.70559a5.86355,5.86355,0,0,0,1.32091.20634A7.50428,7.50428,0,0,0,597.943,267.825l-.08264-.30963a7.54965,7.54965,0,0,0-5.28353-5.63436c-2.06389-.61914-4.1483-1.19709-6.23284-1.75437-1.75438-.47466-3.52929-.90812-5.3042-1.32079-44.002-10.52588-90.914-8.25553-135.08112,3.11635-11.24819,2.84817-22.22806,6.233-33.06344,10.13374-8.15223,2.88948-16.20143,6.06782-24.23,9.47315-6.83144,2.60051-11.97049-.99063-13.66289-5.94387-1.6924-4.8502-.02066-11.02119,6.6663-13.8487,2.53866-1.01128,5.0772-1.98137,7.657-2.93067,61.23535-22.59954,130.06591-30.66939,192.39518-14.117a6.877,6.877,0,0,0,1.2796.20633,7.49973,7.49973,0,0,0,7.94589-9.10166l-.0825-.4128a7.54358,7.54358,0,0,0-5.3042-5.63436c-2.08454-.61914-4.18974-1.19709-6.29481-1.75425-1.98138-.516-3.98341-1.03194-5.98531-1.48606-44.06384-10.40192-91.01717-7.84273-135.205,3.77694a391.50264,391.50264,0,0,0-57.29339,19.97836c-6.83145,2.64171-12.01181-.97009-13.72475-5.944-1.67174-4.87073-.02066-11.04172,6.6663-13.95186,63.34056-25.30322,135.72093-35.16851,200.98088-17.832a6.26622,6.26622,0,0,0,1.21762.20647,7.52362,7.52362,0,0,0,8.00787-9.12245l-.10316-.49532a5.07727,5.07727,0,0,0-.39215-1.197,7.40315,7.40315,0,0,0-4.7469-4.39608c-2.14639-.63979-4.31357-1.2384-6.50128-1.83688-2.20824-.57795-4.45793-1.13511-6.687-1.63042a239.03485,239.03485,0,0,0-23.59016-4.2104c-37.04671-4.76757-75.33171-1.13511-111.73862,8.66833a390.72833,390.72833,0,0,0-57.29327,20.34985c-6.87277,2.683-12.07379-.94931-13.78685-5.96465a10.986,10.986,0,0,1-.59848-3.57048c-.02066-4.02459,2.16705-8.19355,7.28557-10.42258,63.17541-25.6747,135.47314-35.9528,200.71256-18.98774a7.99783,7.99783,0,0,0,2.29088.227,7.52485,7.52485,0,0,0,6.6663-10.07175,117.5382,117.5382,0,0,0-24.66342-40.49336C507.37987,83.37586,440.46884,90.64064,420.46981,94.108A296.578,296.578,0,0,0,295.089,150.51389a84.13442,84.13442,0,0,0-30.66938,85.34162l2.02269,8.93652a6.63717,6.63717,0,0,0,10.71155,3.59113c1.07314-.88745,2.167-1.77491,3.26085-2.66236A223.53641,223.53641,0,0,1,301.85842,230.51a211.89626,211.89626,0,0,1,23.81716-12.96124,10.15214,10.15214,0,0,1,11.95,2.18784,10.02641,10.02641,0,0,1,1.85742,2.91,10.50983,10.50983,0,0,1,.20646,7.7189,11.23623,11.23623,0,0,1-6.93461,7.03791c-3.63245,1.25893-7.20306,2.57985-10.73222,4.04513-3.63245,1.48606-7.24424,3.05463-10.79419,4.7469a204.4445,204.4445,0,0,0-27.18129,15.41727.02023.02023,0,0,0-.02066.02066q-4.27226,2.8481-8.4,5.90267a6.58516,6.58516,0,0,0-2.4559,6.74894l.454,2.02256a6.61111,6.61111,0,0,0,10.69089,3.57048c1.09392-.90812,2.18771-1.79557,3.30229-2.683a220.706,220.706,0,0,1,46.04521-28.46089,10.10234,10.10234,0,0,1,13.78672,5.13905,10.34387,10.34387,0,0,1,.165,7.657,11.07825,11.07825,0,0,1-6.93461,6.99646,211.84085,211.84085,0,0,0-21.52628,8.627,204.67379,204.67379,0,0,0-27.92427,15.74743l-.12395.062c-2.82751,1.87807-5.6137,3.85945-8.338,5.86135a6.54785,6.54785,0,0,0-2.456,6.74894l.45412,2.08454a6.58305,6.58305,0,0,0,10.60826,3.63245c1.13523-.92877,2.291-1.85754,3.42611-2.78632a222.038,222.038,0,0,1,46.80884-28.70854,10.13178,10.13178,0,0,1,13.76606,5.18036,10.49994,10.49994,0,0,1,.16514,7.63639v.02053a11.08468,11.08468,0,0,1-6.97593,6.89343,214.94622,214.94622,0,0,0-21.485,8.48252,205.335,205.335,0,0,0-28.72933,16.03641,1.14,1.14,0,0,1-.18568.14449c-1.9194,1.27959-3.81826,2.60051-5.69634,3.942-.86679.5986-1.73371,1.2384-2.60051,1.8782a6.597,6.597,0,0,0-2.47668,6.74881l.49531,2.1052a6.58641,6.58641,0,0,0,10.60839,3.65311c1.13511-.94943,2.29087-1.8782,3.44664-2.78631q4.92245-3.93157,10.11308-7.61574a215.6651,215.6651,0,0,1,37.50071-21.38179,10.15158,10.15158,0,0,1,13.72486,5.22169,10.49352,10.49352,0,0,1,.14449,7.59507v.02066a11.092,11.092,0,0,1-6.99659,6.81078,209.67261,209.67261,0,0,0-20.68014,8.00788c-.24766.10317-.53651.227-.78429.35082a200.12892,200.12892,0,0,0-29.49283,16.36657.58854.58854,0,0,0-.289.16515q-4.17928,2.78613-8.23487,5.77885a6.616,6.616,0,0,0-2.47668,6.76959l.49544,2.12573a6.58319,6.58319,0,0,0,10.5876,3.67377c1.15589-.94943,2.33219-1.8782,3.50862-2.807a218.422,218.422,0,0,1,39.00743-24.89042c3.07517-1.52725,6.21231-2.99265,9.37-4.37542a10.15637,10.15637,0,0,1,13.828,12.7961,11.01092,11.01092,0,0,1-6.97593,6.81078c-1.60977.516-3.199,1.03195-4.78823,1.60989-5.63435,1.94006-11.20686,4.12777-16.67608,6.56313a202.53174,202.53174,0,0,0-30.2979,16.67621c-.10317.06185-.20634.14436-.33017.227h-.02065c-2.76554,1.85741-5.48988,3.75628-8.19356,5.73752a6.54764,6.54764,0,0,0-2.456,6.74894l.47465,2.18771a6.58859,6.58859,0,0,0,10.58773,3.67377c1.15577-.97009,2.33219-1.89886,3.52928-2.82763a217.16752,217.16752,0,0,1,45.96258-28.06875c1.0526-.47466,2.14651-.97,3.21965-1.42409a10.13678,10.13678,0,0,1,13.78672,12.77544v.02066a10.98825,10.98825,0,0,1-6.99647,6.70762c-3.69443,1.15576-7.36807,2.43536-11.00053,3.77694q-5.26293,2.01216-10.44324,4.27225a200.19646,200.19646,0,0,0-31.08206,16.965,4.66849,4.66849,0,0,0-.4128.26831l-.02066.02066c-2.745,1.81623-5.46921,3.73563-8.1317,5.67568a6.50935,6.50935,0,0,0-2.47669,6.74881l.516,2.27035a6.57858,6.57858,0,0,0,10.5672,3.65311c1.1763-.94943,2.37339-1.91952,3.57047-2.86883a219.3098,219.3098,0,0,1,33.78575-22.02171c5.24221-2.78619,10.64958-5.366,16.18077-7.69825a10.16053,10.16053,0,0,1,13.601,5.3042,10.00749,10.00749,0,0,1,.10317,7.45058v.04132a10.80672,10.80672,0,0,1-6.9966,6.64564A204.80455,204.80455,0,0,0,358.45,430.17c-5.30406,2.27034-10.46377,4.76756-15.47911,7.45058q-8.48253,4.52-16.38724,9.78291a5.15675,5.15675,0,0,0-.49531.35082c-2.74487,1.81623-5.44855,3.715-8.111,5.63436a6.57855,6.57855,0,0,0-2.47668,6.7696l.53663,2.29088a6.60931,6.60931,0,0,0,9.49393,4.41674,12.21338,12.21338,0,0,0,1.07313-.72244c1.19709-.99062,2.39418-1.94005,3.6118-2.91a215.42847,215.42847,0,0,1,50.73026-29.94695,10.165,10.165,0,0,1,13.58038,5.34551,9.84431,9.84431,0,0,1,.06185,7.38861v.02066a10.77772,10.77772,0,0,1-6.99659,6.6251,205.075,205.075,0,0,0-21.38179,7.73956,202.10565,202.10565,0,0,0-32.63,17.52235,5.66813,5.66813,0,0,0-.57783.39214c-2.72434,1.79557-5.40736,3.67364-8.06985,5.59316a6.59231,6.59231,0,0,0-2.47668,6.76947,99.33623,99.33623,0,0,0,22.43452,43.775c.61914.72231,1.27959,1.44462,1.93993,2.1464a100.138,100.138,0,0,0,37.088,24.89041,36.48189,36.48189,0,0,1,20.288,19.81322l37.35622,87.777a32.27928,32.27928,0,0,0,31.7012,19.40055l.55729-.062c.99062-.08251,2.0019-.20634,3.01331-.39214a31.25608,31.25608,0,0,0,3.81814-.94943,32.05149,32.05149,0,0,0,21.89776-36.1798l-4.6644-26.12869-1.77491-9.80344-1.0526-5.944-1.7749-9.96858-2.43537-13.55972a36.87562,36.87562,0,0,1,25.86051-41.83494l7.51243-2.18771,9.80344-2.91L593.547,521.04276a62.64576,62.64576,0,0,0,43.56852-73.53614ZM466.84519,675.19414a13.91249,13.91249,0,0,1-2.06389.165c-11.1862,0-20.24668-11.764-20.24668-26.3145,0-14.52969,9.06048-26.335,20.24668-26.335a11.59853,11.59853,0,0,1,2.06389.165c10.19558,1.34157,18.1828,12.52778,18.1828,26.17C485.028,662.687,477.04077,673.89388,466.84519,675.19414Z"/><path class="cls-12" d="M605.798,515.9792a62.36613,62.36613,0,0,1-12.25079,5.0626l-59.51461,17.52591.9468,7.72918q-5.42007-2.34774-10.76289-4.83074c-13.23616-6.14468-26.20189-12.927-38.955-19.96062-2.14481-1.17867-4.309-2.37668-6.51181-3.55547-23.78653-12.90771-50.54886-25.139-75.1856-15.34241-13.41012,5.33314-23.516,16.44383-35.32226,24.7141-6.2993,4.42491-13.85451,8.019-21.40984,9.275-.65692-.6956-1.314-1.41054-1.95164-2.14482a99.04353,99.04353,0,0,1-22.41455-43.76649,6.56554,6.56554,0,0,1,2.47327-6.763q3.97084-2.89843,8.05775-5.60358l-1.93229-8.54082c.17384-.13527.36714-.27043.541-.425l-1.3912-6.12533c-1.21735.96614-2.41537,1.93229-3.61338,2.91766a9.29856,9.29856,0,0,1-1.06285.71494c1.23669-2.37668,2.5313-4.734,3.88393-7.09148,2.16415-3.72931,4.425-7.41994,6.70511-11.11069v-.01934c2.2801-3.67129,4.59887-7.32335,6.84028-11.014,3.14965-5.12062,6.18336-10.27981,8.90784-15.555.38649-.73428.75363-1.46845,1.10142-2.22207v-.01934a97.73847,97.73847,0,0,0,3.98052-9.31367c.85022-2.31878,1.60384-4.67612,2.2801-7.05292a79.82072,79.82072,0,0,0,1.855-7.92235,75.32988,75.32988,0,0,0,1.42988-14.87868v-.01935a63.40155,63.40155,0,0,0-.44439-6.9562c-.1933-1.48791-.42517-2.93713-.71494-4.38635a48.716,48.716,0,0,0-1.855-6.53116,39.71151,39.71151,0,0,0-6.68578-11.92222,36.443,36.443,0,0,0-4.21239-4.46359c-.17384-.15461-.3478-.30911-.541-.46373a41.65794,41.65794,0,0,0-4.73414-3.57469,50.59285,50.59285,0,0,0-7.5939-3.9613,85.57926,85.57926,0,0,0-15.439-4.63743h-.01934c-2.70526-.57967-5.44909-1.10142-8.23159-1.62318-3.88393-.6956-7.82577-1.37185-11.7097-2.1835-.23186-.03857-.44438-.07725-.67625-.13528a1.17,1.17,0,0,1-.25121-.0579c-2.33812-.48308-4.65689-1.00483-6.937-1.60384,1.87438-1.35263,3.768-2.66658,5.68094-3.96118l-2.12547-9.4296c.05791-.03868.09659-.07725.1545-.11593l-1.3912-6.12534q-1.71015,1.39119-3.42019,2.78251a6.58614,6.58614,0,0,1-10.60828-3.63272l-.46373-2.08691a6.5716,6.5716,0,0,1,2.454-6.74369c2.74383-2.00966,5.52633-3.98052,8.34752-5.8549l-2.16427-9.64213c.01934-.01934.058-.03868.07736-.0579l-1.39131-6.08677c-1.12064.88889-2.22206,1.77767-3.30414,2.68591a6.61871,6.61871,0,0,1-10.705-3.57481l-.44439-2.00954a6.55876,6.55876,0,0,1,2.454-6.74369q4.11573-3.07234,8.40543-5.91281l-1.41054-6.28-.81165-3.55547-1.39119-6.06731c-1.10143.86944-2.1835,1.75834-3.26558,2.64723a6.61863,6.61863,0,0,1-10.70487-3.57481l-2.029-8.94653a84.14982,84.14982,0,0,1,12.69518-66.37422,84.38919,84.38919,0,0,1,17.97042-18.97514A296.80337,296.80337,0,0,1,420.47167,94.10158c19.99931-3.45876,86.91464-10.72421,130.31387,35.47687a117.8779,117.8779,0,0,1,24.65608,40.50091,7.52221,7.52221,0,0,1-6.66644,10.06729l1.50725,6.91753.61835,2.76316,1.2946,5.87425c2.1835.57967,4.34766,1.198,6.49248,1.8357a7.50261,7.50261,0,0,1,5.14,5.58424l.09659.50242a7.52573,7.52573,0,0,1-7.99972,9.12048l1.56515,7.13017,1.77768,8.11554c2.10625.56044,4.2125,1.1401,6.2993,1.75845a7.58218,7.58218,0,0,1,5.29446,5.64226l.07737.40583a7.50342,7.50342,0,0,1-7.9417,9.101l1.56515,7.13017,1.77768,8.09631c2.08691.56044,4.1737,1.14011,6.24127,1.75846a7.55607,7.55607,0,0,1,5.27524,5.64226l.07725.28989a7.51509,7.51509,0,0,1-7.90313,9.12037l1.56515,7.13016,1.7778,8.077c2.10613.56044,4.21238,1.1401,6.31851,1.77767a7.48918,7.48918,0,0,1,5.15931,5.6037l.03857.21252a7.50707,7.50707,0,0,1-7.84511,9.12049l1.56516,7.11083,1.75845,8.05762c2.10613.5411,4.193,1.14011,6.27995,1.75846a7.4648,7.4648,0,0,1,5.13985,5.60358l.03868.13527a7.498,7.498,0,0,1-7.80654,9.10115l1.56527,7.11082,1.75834,8.03829c2.08691.52176,4.15448,1.10142,6.22193,1.71977a7.52628,7.52628,0,0,1,5.14,5.6037l.01934.07725a7.51256,7.51256,0,0,1-7.74851,9.12048l1.56515,7.11083,1.73911,7.961c2.06745.541,4.135,1.12065,6.16391,1.71966a7.53037,7.53037,0,0,1-2.55053,14.72418l1.56516,7.09148,1.739,7.9417c2.00966.50241,3.99986,1.06274,5.99018,1.66174a7.62169,7.62169,0,0,1,5.27512,5.64238l4.65678,21.35182A62.73834,62.73834,0,0,1,605.798,515.9792Z"/><path class="cls-12" d="M605.798,515.9792A191.20253,191.20253,0,0,0,533.60754,498.492c-1.4879-.058-2.97581-.09671-4.46371-.13528-12.28936-.23186-24.63674.3478-36.75214-1.27537h-.01934c-1.5845-.19319-3.169-.44439-4.73414-.73429-15.11055-2.80173-30.31769-10.55024-37.31258-24.23091a39.92133,39.92133,0,0,1-4.25107-17.29405,71.70788,71.70788,0,0,1,2.49273-19.22634c.65692-2.62789,1.41054-5.27512,2.22207-7.903,1.50725-4.88876,3.20767-9.79675,4.83073-14.66616.8889-2.62789,1.75846-5.23644,2.57-7.84511.5411-1.77767,1.06273-3.53613,1.54581-5.29446.09659-.36714.1933-.71494.27055-1.08208.69559-2.5313,1.256-5.10128,1.71977-7.67115a102.003,102.003,0,0,0,1.56515-12.77255c.1545-2.41536.21252-4.81139.21252-7.20741,0-2.12548-.07725-4.25107-.19318-6.37655-.15462-2.35746-.36714-4.69546-.657-7.03357-.46373-3.90327-1.14011-7.80643-1.9902-11.65179-.50242-2.29931-1.0822-4.56018-1.71977-6.82093-.57967-2.06757-1.21735-4.09646-1.89373-6.12534-.7535-2.20284-1.56515-4.38634-2.41536-6.5505q-2.28971-5.681-5.08183-11.11069c-1.10142-2.14482-2.28021-4.27041-3.51679-6.3572-1.08208-1.87439-2.24152-3.71009-3.43953-5.52645q-1.97092-3.04332-4.17371-5.97072a123.88607,123.88607,0,0,0-8.75334-10.5697c-1.81636-1.95164-3.67129-3.82591-5.60358-5.64227-1.5845-1.50724-3.20767-2.97569-4.88876-4.367-2.02888-1.739-4.13514-3.40085-6.28-5.00457a111.09566,111.09566,0,0,0-14.80132-9.1784q-4.28981-2.23185-8.77268-4.05788c-2.06757-.85022-4.17371-1.62306-6.2993-2.31878-.32846-.11593-.63757-.23186-.96615-.32846-4.792-1.54581-9.71937-2.80184-14.70472-3.90327-11.671-2.62789-23.63191-4.48281-34.9938-7.55521-3.51679-.9468-6.97555-2.00954-10.33772-3.26558a75.70909,75.70909,0,0,1-14.6855-7.11083h-.01934a63.38105,63.38105,0,0,1-5.4104-3.78733c-.01934-.01934-.03869-.03857-.05791-.03857a59.673,59.673,0,0,1-8.27027-7.94181c-12.13474-14.183-17.236-33.62184-16.46318-53.08a84.38919,84.38919,0,0,1,17.97042-18.97514A296.80337,296.80337,0,0,1,420.47167,94.10158c19.99931-3.45876,86.91464-10.72421,130.31387,35.47687a117.8779,117.8779,0,0,1,24.65608,40.50091,7.52221,7.52221,0,0,1-6.66644,10.06729l1.50725,6.91753.61835,2.76316,1.2946,5.87425c2.1835.57967,4.34766,1.198,6.49248,1.8357a7.50261,7.50261,0,0,1,5.14,5.58424l.09659.50242a7.52573,7.52573,0,0,1-7.99972,9.12048l1.56515,7.13017,1.77768,8.11554c2.10625.56044,4.2125,1.1401,6.2993,1.75845a7.58218,7.58218,0,0,1,5.29446,5.64226l.07737.40583a7.50342,7.50342,0,0,1-7.9417,9.101l1.56515,7.13017,1.77768,8.09631c2.08691.56044,4.1737,1.14011,6.24127,1.75846a7.55607,7.55607,0,0,1,5.27524,5.64226l.07725.28989a7.51509,7.51509,0,0,1-7.90313,9.12037l1.56515,7.13016,1.7778,8.077c2.10613.56044,4.21238,1.1401,6.31851,1.77767a7.48918,7.48918,0,0,1,5.15931,5.6037l.03857.21252a7.50707,7.50707,0,0,1-7.84511,9.12049l1.56516,7.11083,1.75845,8.05762c2.10613.5411,4.193,1.14011,6.27995,1.75846a7.4648,7.4648,0,0,1,5.13985,5.60358l.03868.13527a7.498,7.498,0,0,1-7.80654,9.10115l1.56527,7.11082,1.75834,8.03829c2.08691.52176,4.15448,1.10142,6.22193,1.71977a7.52628,7.52628,0,0,1,5.14,5.6037l.01934.07725a7.51256,7.51256,0,0,1-7.74851,9.12048l1.56515,7.11083,1.73911,7.961c2.06745.541,4.135,1.12065,6.16391,1.71966a7.53037,7.53037,0,0,1-2.55053,14.72418l1.56516,7.09148,1.739,7.9417c2.00966.50241,3.99986,1.06274,5.99018,1.66174a7.62169,7.62169,0,0,1,5.27512,5.64238l4.65678,21.35182A62.73834,62.73834,0,0,1,605.798,515.9792Z"/></g></g></svg>